G04 #@! TF.GenerationSoftware,KiCad,Pcbnew,10.0.3*
G04 #@! TF.CreationDate,2026-06-22T15:45:52+02:00*
G04 #@! TF.ProjectId,caiman,6361696d-616e-42e6-9b69-6361645f7063,0.1*
G04 #@! TF.SameCoordinates,Original*
G04 #@! TF.FileFunction,Paste,Top*
G04 #@! TF.FilePolarity,Positive*
%FSLAX46Y46*%
G04 Gerber Fmt 4.6, Leading zero omitted, Abs format (unit mm)*
G04 Created by KiCad (PCBNEW 10.0.3) date 2026-06-22 15:45:52*
%MOMM*%
%LPD*%
G01*
G04 APERTURE LIST*
G04 Aperture macros list*
%AMRoundRect*
0 Rectangle with rounded corners*
0 $1 Rounding radius*
0 $2 $3 $4 $5 $6 $7 $8 $9 X,Y pos of 4 corners*
0 Add a 4 corners polygon primitive as box body*
4,1,4,$2,$3,$4,$5,$6,$7,$8,$9,$2,$3,0*
0 Add four circle primitives for the rounded corners*
1,1,$1+$1,$2,$3*
1,1,$1+$1,$4,$5*
1,1,$1+$1,$6,$7*
1,1,$1+$1,$8,$9*
0 Add four rect primitives between the rounded corners*
20,1,$1+$1,$2,$3,$4,$5,0*
20,1,$1+$1,$4,$5,$6,$7,0*
20,1,$1+$1,$6,$7,$8,$9,0*
20,1,$1+$1,$8,$9,$2,$3,0*%
%AMRotRect*
0 Rectangle, with rotation*
0 The origin of the aperture is its center*
0 $1 length*
0 $2 width*
0 $3 Rotation angle, in degrees counterclockwise*
0 Add horizontal line*
21,1,$1,$2,0,0,$3*%
G04 Aperture macros list end*
%ADD10RoundRect,0.225000X-0.335876X-0.017678X-0.017678X-0.335876X0.335876X0.017678X0.017678X0.335876X0*%
%ADD11RoundRect,0.200000X0.200000X0.275000X-0.200000X0.275000X-0.200000X-0.275000X0.200000X-0.275000X0*%
%ADD12RoundRect,0.407500X-0.415000X-0.407500X0.415000X-0.407500X0.415000X0.407500X-0.415000X0.407500X0*%
%ADD13RoundRect,0.102500X-0.257500X-0.102500X0.257500X-0.102500X0.257500X0.102500X-0.257500X0.102500X0*%
%ADD14R,0.510000X0.585000*%
%ADD15R,0.410000X0.470000*%
%ADD16RoundRect,0.150000X-0.150000X0.512500X-0.150000X-0.512500X0.150000X-0.512500X0.150000X0.512500X0*%
%ADD17RoundRect,0.200000X-0.275000X0.200000X-0.275000X-0.200000X0.275000X-0.200000X0.275000X0.200000X0*%
%ADD18RoundRect,0.225000X-0.017678X0.335876X-0.335876X0.017678X0.017678X-0.335876X0.335876X-0.017678X0*%
%ADD19RoundRect,0.150000X-0.700000X0.150000X-0.700000X-0.150000X0.700000X-0.150000X0.700000X0.150000X0*%
%ADD20RoundRect,0.250000X-1.150000X0.250000X-1.150000X-0.250000X1.150000X-0.250000X1.150000X0.250000X0*%
%ADD21RoundRect,0.250000X-1.000000X1.500000X-1.000000X-1.500000X1.000000X-1.500000X1.000000X1.500000X0*%
%ADD22RotRect,1.500000X1.000000X225.000000*%
%ADD23R,1.100000X1.100000*%
%ADD24RoundRect,0.250000X0.475000X-0.250000X0.475000X0.250000X-0.475000X0.250000X-0.475000X-0.250000X0*%
%ADD25RoundRect,0.245000X-0.245000X-1.605000X0.245000X-1.605000X0.245000X1.605000X-0.245000X1.605000X0*%
%ADD26RoundRect,0.225000X-0.250000X0.225000X-0.250000X-0.225000X0.250000X-0.225000X0.250000X0.225000X0*%
%ADD27RotRect,1.500000X1.000000X135.000000*%
%ADD28RoundRect,0.200000X0.275000X-0.200000X0.275000X0.200000X-0.275000X0.200000X-0.275000X-0.200000X0*%
%ADD29RoundRect,0.250000X0.250000X0.475000X-0.250000X0.475000X-0.250000X-0.475000X0.250000X-0.475000X0*%
%ADD30RoundRect,0.225000X-0.225000X-0.250000X0.225000X-0.250000X0.225000X0.250000X-0.225000X0.250000X0*%
%ADD31RoundRect,0.150000X-0.512500X-0.150000X0.512500X-0.150000X0.512500X0.150000X-0.512500X0.150000X0*%
%ADD32RoundRect,0.250000X-0.900000X1.000000X-0.900000X-1.000000X0.900000X-1.000000X0.900000X1.000000X0*%
%ADD33R,1.000000X1.500000*%
%ADD34RoundRect,0.225000X0.250000X-0.225000X0.250000X0.225000X-0.250000X0.225000X-0.250000X-0.225000X0*%
%ADD35RoundRect,0.225000X0.225000X0.250000X-0.225000X0.250000X-0.225000X-0.250000X0.225000X-0.250000X0*%
%ADD36RoundRect,0.250000X-0.475000X0.250000X-0.475000X-0.250000X0.475000X-0.250000X0.475000X0.250000X0*%
%ADD37RoundRect,0.375000X0.375000X0.375000X-0.375000X0.375000X-0.375000X-0.375000X0.375000X-0.375000X0*%
%ADD38RoundRect,0.125000X0.250000X0.125000X-0.250000X0.125000X-0.250000X-0.125000X0.250000X-0.125000X0*%
%ADD39RoundRect,0.100000X0.275000X0.100000X-0.275000X0.100000X-0.275000X-0.100000X0.275000X-0.100000X0*%
%ADD40RoundRect,0.245000X-1.605000X0.245000X-1.605000X-0.245000X1.605000X-0.245000X1.605000X0.245000X0*%
%ADD41RoundRect,0.200000X-0.200000X-0.275000X0.200000X-0.275000X0.200000X0.275000X-0.200000X0.275000X0*%
G04 APERTURE END LIST*
D10*
G04 #@! TO.C,C50*
X135436893Y-59379967D03*
X136532909Y-60475983D03*
G04 #@! TD*
D11*
G04 #@! TO.C,R31*
X156288000Y-96331000D03*
X154638000Y-96331000D03*
G04 #@! TD*
D12*
G04 #@! TO.C,Q1*
X158755000Y-122170000D03*
X158755000Y-124100000D03*
X160700000Y-122170000D03*
X160700000Y-124100000D03*
D13*
X155932500Y-121230000D03*
X155932500Y-122500000D03*
X155932500Y-123770000D03*
X155932500Y-125040000D03*
D14*
X158647500Y-120862500D03*
X158647500Y-125407500D03*
D15*
X161517500Y-120920000D03*
X161517500Y-125350000D03*
G04 #@! TD*
D16*
G04 #@! TO.C,U4*
X132344378Y-118334287D03*
X131394378Y-118334287D03*
X130444378Y-118334287D03*
X130444378Y-120609287D03*
X131394378Y-120609287D03*
X132344378Y-120609287D03*
G04 #@! TD*
D17*
G04 #@! TO.C,R4*
X128408378Y-117475287D03*
X128408378Y-119125287D03*
G04 #@! TD*
D18*
G04 #@! TO.C,C51*
X169797287Y-65951300D03*
X168701271Y-67047316D03*
G04 #@! TD*
D19*
G04 #@! TO.C,J12*
X169000000Y-101550000D03*
X169000000Y-102800000D03*
X169000000Y-104050000D03*
X169000000Y-105300000D03*
D20*
X172350000Y-99700000D03*
X172350000Y-107150000D03*
G04 #@! TD*
D21*
G04 #@! TO.C,C11*
X122508378Y-113525287D03*
X122508378Y-120025287D03*
G04 #@! TD*
D17*
G04 #@! TO.C,R1*
X159066000Y-112323000D03*
X159066000Y-113973000D03*
G04 #@! TD*
D22*
G04 #@! TO.C,D3*
X129136218Y-63601041D03*
X131398959Y-65863782D03*
X134863782Y-62398959D03*
X132601041Y-60136218D03*
G04 #@! TD*
D16*
G04 #@! TO.C,U2*
X172308000Y-117460500D03*
X171358000Y-117460500D03*
X170408000Y-117460500D03*
X170408000Y-119735500D03*
X171358000Y-119735500D03*
X172308000Y-119735500D03*
G04 #@! TD*
D17*
G04 #@! TO.C,R2*
X159066000Y-115688000D03*
X159066000Y-117338000D03*
G04 #@! TD*
D23*
G04 #@! TO.C,DZ1*
X150627500Y-127535000D03*
X153427500Y-127535000D03*
G04 #@! TD*
D24*
G04 #@! TO.C,C9*
X136500000Y-120200000D03*
X136500000Y-118300000D03*
G04 #@! TD*
D25*
G04 #@! TO.C,L1*
X167279000Y-113465000D03*
X169649000Y-113465000D03*
G04 #@! TD*
D26*
G04 #@! TO.C,C7*
X168122000Y-120858000D03*
X168122000Y-122408000D03*
G04 #@! TD*
D27*
G04 #@! TO.C,D4*
X166047918Y-60022436D03*
X163785177Y-62285177D03*
X167250000Y-65750000D03*
X169512741Y-63487259D03*
G04 #@! TD*
D17*
G04 #@! TO.C,R6*
X143671413Y-120706530D03*
X143671413Y-122356530D03*
G04 #@! TD*
D28*
G04 #@! TO.C,R7*
X143671413Y-118800530D03*
X143671413Y-117150530D03*
G04 #@! TD*
D29*
G04 #@! TO.C,C3*
X162823000Y-117275000D03*
X160923000Y-117275000D03*
G04 #@! TD*
D21*
G04 #@! TO.C,C48*
X141100000Y-90600000D03*
X141100000Y-97100000D03*
G04 #@! TD*
D26*
G04 #@! TO.C,C8*
X166090000Y-120858000D03*
X166090000Y-122408000D03*
G04 #@! TD*
D30*
G04 #@! TO.C,C4*
X164641000Y-117275000D03*
X166191000Y-117275000D03*
G04 #@! TD*
D31*
G04 #@! TO.C,U10*
X154712000Y-91891000D03*
X154712000Y-92841000D03*
X154712000Y-93791000D03*
X156987000Y-93791000D03*
X156987000Y-91891000D03*
G04 #@! TD*
G04 #@! TO.C,U1*
X162125000Y-113343000D03*
X162125000Y-114293000D03*
X162125000Y-115243000D03*
X164400000Y-115243000D03*
X164400000Y-114293000D03*
X164400000Y-113343000D03*
G04 #@! TD*
D32*
G04 #@! TO.C,D1*
X140096378Y-117325287D03*
X140096378Y-121625287D03*
G04 #@! TD*
D33*
G04 #@! TO.C,D2*
X148400000Y-95950000D03*
X151600000Y-95950000D03*
X151600000Y-91050000D03*
X148400000Y-91050000D03*
G04 #@! TD*
D34*
G04 #@! TO.C,C2*
X174472000Y-119881000D03*
X174472000Y-118331000D03*
G04 #@! TD*
D30*
G04 #@! TO.C,C5*
X164641000Y-119053000D03*
X166191000Y-119053000D03*
G04 #@! TD*
G04 #@! TO.C,C47*
X154688000Y-89351000D03*
X156238000Y-89351000D03*
G04 #@! TD*
D35*
G04 #@! TO.C,C1*
X164667000Y-111179000D03*
X163117000Y-111179000D03*
G04 #@! TD*
D17*
G04 #@! TO.C,R5*
X128408378Y-113825287D03*
X128408378Y-115475287D03*
G04 #@! TD*
D24*
G04 #@! TO.C,C6*
X168122000Y-119027000D03*
X168122000Y-117127000D03*
G04 #@! TD*
D36*
G04 #@! TO.C,C10*
X134254378Y-118656287D03*
X134254378Y-120556287D03*
G04 #@! TD*
D37*
G04 #@! TO.C,Q2*
X128588378Y-126627287D03*
X128588378Y-124927287D03*
X126888378Y-126627287D03*
X126888378Y-124927287D03*
D38*
X125483378Y-127682287D03*
X125483378Y-126412287D03*
X125483378Y-125142287D03*
X125483378Y-123872287D03*
D39*
X131288378Y-127682287D03*
X131288378Y-126412287D03*
X131288378Y-125142287D03*
X131288378Y-123872287D03*
G04 #@! TD*
D19*
G04 #@! TO.C,J11*
X169150000Y-91100000D03*
X169150000Y-92350000D03*
X169150000Y-93600000D03*
X169150000Y-94850000D03*
D20*
X172500000Y-89250000D03*
X172500000Y-96700000D03*
G04 #@! TD*
D40*
G04 #@! TO.C,L2*
X171932000Y-122324000D03*
X171932000Y-124694000D03*
G04 #@! TD*
D30*
G04 #@! TO.C,C49*
X149962500Y-88510000D03*
X151512500Y-88510000D03*
G04 #@! TD*
D41*
G04 #@! TO.C,R3*
X151677500Y-124935000D03*
X153327500Y-124935000D03*
G04 #@! TD*
M02*
