M48
; DRILL file KiCad 10.0.3 date 2026-06-22T15:45:52
; FORMAT={-:-/ absolute / metric / decimal}
; #@! TF.CreationDate,2026-06-22T15:45:52+02:00
; #@! TF.GenerationSoftware,Kicad,Pcbnew,10.0.3
; #@! TF.FileFunction,Plated,1,2,PTH
FMAT,2
METRIC
; #@! TA.AperFunction,Plated,PTH,ViaDrill
T1C0.300
; #@! TA.AperFunction,Plated,PTH,ViaDrill
T2C0.400
; #@! TA.AperFunction,Plated,PTH,ComponentDrill
T3C0.750
; #@! TA.AperFunction,Plated,PTH,ComponentDrill
T4C1.000
; #@! TA.AperFunction,Plated,PTH,ComponentDrill
T5C1.800
; #@! TA.AperFunction,Plated,PTH,ComponentDrill
T6C4.300
; #@! TA.AperFunction,Plated,PTH,ComponentDrill
T7C4.500
%
G90
G05
T1
X126.9Y-101.6
X127.0Y-97.225
X127.0Y-98.325
X127.0Y-99.4
X127.0Y-103.825
X127.0Y-104.925
X129.316Y-78.616
X130.3Y-77.7
X131.3Y-75.5
X132.1Y-73.05
X133.528Y-98.428
X134.463Y-96.362
X135.45Y-71.4
X135.9Y-98.9
X136.3Y-99.8
X136.4Y-72.0
X142.074Y-85.426
X142.136Y-86.495
X143.0Y-81.5
X144.643Y-67.143
X145.304Y-66.796
X148.625Y-89.375
X153.275Y-92.8
X157.5Y-69.1
X158.0Y-70.0
X158.5Y-80.7
X158.854Y-80.0
X163.504Y-84.896
X164.0Y-85.7
X164.678Y-83.275
X164.7Y-101.6
X165.386Y-83.275
X165.8Y-102.7
X166.1Y-84.775
X167.0Y-102.2
X167.846Y-85.775
X170.7Y-83.2
X172.8Y-85.275
X177.484Y-96.85
X178.95Y-96.25
T2
X108.8Y-83.6
X109.7Y-112.3
X110.4Y-90.5
X110.4Y-120.5
X110.55Y-78.125
X113.3Y-114.65
X113.6Y-86.6
X113.6Y-109.1
X114.4Y-126.7
X116.3Y-117.0
X117.2Y-90.2
X119.8Y-109.9
X122.2Y-124.0
X122.4Y-135.5
X123.3Y-83.6
X124.1Y-77.2
X124.1Y-90.8
X124.225Y-86.8
X125.6Y-63.0
X126.9Y-69.8
X127.3Y-132.7
X127.4Y-108.7
X128.0Y-111.8
X128.2Y-139.4
X130.9Y-116.4
X131.3Y-114.0
X131.8Y-81.2
X131.8Y-86.0
X131.9Y-90.4
X132.0Y-96.4
X132.0Y-106.0
X132.7Y-109.3
X133.15Y-128.9
X133.9Y-107.9
X134.5Y-141.8
X134.6Y-82.3
X134.6Y-115.8
X134.9Y-111.5
X135.7Y-65.2
X136.2Y-78.7
X136.2Y-102.4
X136.5Y-75.3
X136.8Y-114.2
X136.9Y-106.1
X138.2Y-74.8
X139.7Y-110.0
X140.3Y-60.8
X140.4Y-130.825
X141.6Y-100.1
X142.0Y-103.7
X142.5Y-145.1
X143.4Y-108.7
X144.1Y-60.2
X144.172Y-63.686
X144.425Y-130.9
X144.8Y-111.8
X144.825Y-63.8
X145.0Y-102.125
X145.575Y-121.85
X145.8Y-84.8
X146.1Y-102.3
X146.2Y-97.5
X146.4Y-93.65
X146.6Y-105.1
X146.8Y-87.7
X148.0Y-60.675
X148.1Y-135.8
X148.4Y-62.375
X148.85Y-97.575
X149.2Y-109.4
X149.7Y-143.9
X150.275Y-120.625
X150.4Y-130.5
X150.6Y-140.4
X150.7Y-134.6
X151.4Y-105.1
X151.55Y-63.575
X152.0Y-86.6
X153.1Y-130.5
X153.25Y-60.475
X153.4Y-90.1
X153.4Y-95.15
X154.25Y-64.25
X154.5Y-87.1
X155.0Y-113.85
X155.25Y-117.575
X155.5Y-101.9
X155.925Y-61.475
X156.1Y-64.2
X156.5Y-86.5
X156.5Y-110.5
X156.75Y-84.85
X157.4Y-97.7
X157.7Y-80.875
X157.875Y-118.4
X159.0Y-144.1
X159.275Y-97.425
X159.325Y-104.6
X159.7Y-94.7
X159.9Y-90.0
X159.975Y-67.475
X160.024Y-66.726
X160.35Y-115.25
X160.5Y-108.0
X160.725Y-83.825
X161.0Y-75.6
X161.55Y-101.275
X162.475Y-118.9
X162.5Y-71.75
X162.55Y-88.825
X163.0Y-78.0
X163.1Y-130.3
X163.6Y-122.5
X163.9Y-65.0
X163.9Y-97.3
X164.3Y-57.9
X164.5Y-70.5
X164.5Y-120.7
X164.6Y-79.7
X164.6Y-126.6
X165.0Y-105.0
X165.125Y-100.6
X166.375Y-67.2
X166.8Y-89.9
X166.9Y-98.0
X167.0Y-76.3
X167.6Y-82.4
X168.1Y-124.0
X168.4Y-69.7
X169.5Y-87.4
X170.2Y-98.1
X170.4Y-73.7
X170.4Y-136.3
X170.5Y-79.4
X171.2Y-60.3
X171.3Y-109.7
X171.4Y-127.5
X172.0Y-113.2
X172.2Y-131.2
X173.1Y-64.0
X173.3Y-139.3
X173.7Y-87.5
X174.8Y-92.7
X174.8Y-116.0
X175.0Y-76.4
X175.0Y-89.7
X175.8Y-81.8
X176.6Y-90.8
X176.6Y-110.6
X176.9Y-101.5
X177.2Y-94.8
X177.5Y-119.6
X179.2Y-92.1
X179.9Y-97.7
X179.95Y-90.4
X180.0Y-79.75
X180.8Y-124.8
X183.45Y-78.175
X183.5Y-87.3
X184.7Y-121.1
X185.9Y-127.3
X186.2Y-110.4
X186.375Y-82.075
X186.7Y-74.3
X187.75Y-88.225
X189.9Y-80.4
X190.2Y-89.7
X190.2Y-102.2
X190.4Y-120.4
X192.8Y-104.5
X192.9Y-107.1
X193.2Y-96.0
X193.5Y-111.4
X194.625Y-91.8
T3
X194.36Y-98.73
X194.36Y-100.0
X194.36Y-101.27
T4
X143.65Y-57.5
X146.19Y-57.5
X147.9Y-113.12
X147.9Y-115.66
X147.9Y-118.2
X148.73Y-57.5
X151.27Y-57.5
X152.1Y-113.12
X152.1Y-115.66
X152.1Y-118.2
X153.81Y-57.5
X156.35Y-57.5
X172.5Y-69.0
X174.296Y-67.204
X176.092Y-65.408
T5
X138.7Y-127.2
X143.7Y-127.2
T6
X120.302Y-70.302
X120.302Y-129.698
X179.698Y-70.302
X179.698Y-129.698
T7
X135.3Y-136.0
X142.5Y-136.0
X157.5Y-136.0
X164.7Y-136.0
M30
