%TF.GenerationSoftware,KiCad,Pcbnew,10.0.3*%
%TF.CreationDate,2026-06-22T15:45:52+02:00*%
%TF.ProjectId,caiman,6361696d-616e-42e6-9b69-6361645f7063,0.1*%
%TF.SameCoordinates,Original*%
%TF.FileFunction,Drillmap*%
%TF.FilePolarity,Positive*%
%FSLAX45Y45*%
G04 Gerber Fmt 4.5, Leading zero omitted, Abs format (unit mm)*
G04 Created by KiCad (PCBNEW 10.0.3) date 2026-06-22 15:45:52*
%MOMM*%
%LPD*%
G01*
G04 APERTURE LIST*
%ADD10C,0.050000*%
%ADD11C,0.200000*%
G04 APERTURE END LIST*
D10*
X10610000Y-8330000D02*
G75*
G02*
X10613863Y-11680118I4390000J-1670000D01*
G01*
X10610248Y-8329910D02*
G75*
G02*
X10613862Y-11680118I-4620248J-1680090D01*
G01*
D11*
X10868277Y-15010898D02*
X10868277Y-14810898D01*
X10868277Y-14810898D02*
X10915896Y-14810898D01*
X10915896Y-14810898D02*
X10944467Y-14820421D01*
X10944467Y-14820421D02*
X10963515Y-14839469D01*
X10963515Y-14839469D02*
X10973039Y-14858517D01*
X10973039Y-14858517D02*
X10982563Y-14896612D01*
X10982563Y-14896612D02*
X10982563Y-14925183D01*
X10982563Y-14925183D02*
X10973039Y-14963278D01*
X10973039Y-14963278D02*
X10963515Y-14982326D01*
X10963515Y-14982326D02*
X10944467Y-15001374D01*
X10944467Y-15001374D02*
X10915896Y-15010898D01*
X10915896Y-15010898D02*
X10868277Y-15010898D01*
X11068277Y-15010898D02*
X11068277Y-14877564D01*
X11068277Y-14915659D02*
X11077801Y-14896612D01*
X11077801Y-14896612D02*
X11087325Y-14887088D01*
X11087325Y-14887088D02*
X11106372Y-14877564D01*
X11106372Y-14877564D02*
X11125420Y-14877564D01*
X11192086Y-15010898D02*
X11192086Y-14877564D01*
X11192086Y-14810898D02*
X11182563Y-14820421D01*
X11182563Y-14820421D02*
X11192086Y-14829945D01*
X11192086Y-14829945D02*
X11201610Y-14820421D01*
X11201610Y-14820421D02*
X11192086Y-14810898D01*
X11192086Y-14810898D02*
X11192086Y-14829945D01*
X11315896Y-15010898D02*
X11296848Y-15001374D01*
X11296848Y-15001374D02*
X11287324Y-14982326D01*
X11287324Y-14982326D02*
X11287324Y-14810898D01*
X11420658Y-15010898D02*
X11401610Y-15001374D01*
X11401610Y-15001374D02*
X11392086Y-14982326D01*
X11392086Y-14982326D02*
X11392086Y-14810898D01*
X11649229Y-15010898D02*
X11649229Y-14810898D01*
X11649229Y-14810898D02*
X11715896Y-14953755D01*
X11715896Y-14953755D02*
X11782563Y-14810898D01*
X11782563Y-14810898D02*
X11782563Y-15010898D01*
X11963515Y-15010898D02*
X11963515Y-14906136D01*
X11963515Y-14906136D02*
X11953991Y-14887088D01*
X11953991Y-14887088D02*
X11934944Y-14877564D01*
X11934944Y-14877564D02*
X11896848Y-14877564D01*
X11896848Y-14877564D02*
X11877801Y-14887088D01*
X11963515Y-15001374D02*
X11944467Y-15010898D01*
X11944467Y-15010898D02*
X11896848Y-15010898D01*
X11896848Y-15010898D02*
X11877801Y-15001374D01*
X11877801Y-15001374D02*
X11868277Y-14982326D01*
X11868277Y-14982326D02*
X11868277Y-14963278D01*
X11868277Y-14963278D02*
X11877801Y-14944231D01*
X11877801Y-14944231D02*
X11896848Y-14934707D01*
X11896848Y-14934707D02*
X11944467Y-14934707D01*
X11944467Y-14934707D02*
X11963515Y-14925183D01*
X12058753Y-14877564D02*
X12058753Y-15077564D01*
X12058753Y-14887088D02*
X12077801Y-14877564D01*
X12077801Y-14877564D02*
X12115896Y-14877564D01*
X12115896Y-14877564D02*
X12134944Y-14887088D01*
X12134944Y-14887088D02*
X12144467Y-14896612D01*
X12144467Y-14896612D02*
X12153991Y-14915659D01*
X12153991Y-14915659D02*
X12153991Y-14972802D01*
X12153991Y-14972802D02*
X12144467Y-14991850D01*
X12144467Y-14991850D02*
X12134944Y-15001374D01*
X12134944Y-15001374D02*
X12115896Y-15010898D01*
X12115896Y-15010898D02*
X12077801Y-15010898D01*
X12077801Y-15010898D02*
X12058753Y-15001374D01*
X12239705Y-14991850D02*
X12249229Y-15001374D01*
X12249229Y-15001374D02*
X12239705Y-15010898D01*
X12239705Y-15010898D02*
X12230182Y-15001374D01*
X12230182Y-15001374D02*
X12239705Y-14991850D01*
X12239705Y-14991850D02*
X12239705Y-15010898D01*
X12239705Y-14887088D02*
X12249229Y-14896612D01*
X12249229Y-14896612D02*
X12239705Y-14906136D01*
X12239705Y-14906136D02*
X12230182Y-14896612D01*
X12230182Y-14896612D02*
X12239705Y-14887088D01*
X12239705Y-14887088D02*
X12239705Y-14906136D01*
M02*
